<svg xmlns="http://www.w3.org/2000/svg" version="1.1" xmlns:xlink="http://www.w3.org/1999/xlink"
     xmlns:svgjs="http://svgjs.com/svgjs" width="100%" height="100%" x="0" y="0" viewBox="0 0 512 512"
     style="enable-background:new 0 0 512 512" xml:space="preserve" class=""><g><path d="M256 40v35.131M375.726 20v55.131M136.274 20v55.131M256 436.869V472M375.726 436.869V492M136.274 436.869V492M472 256h-35.131M492 136.274h-55.131M75.131 256H40M75.131 375.726H20M75.131 136.274H20M166.625 329.73l55.371-145.383c1.132-2.766 5.047-2.77 6.184-.006l54.868 145.389M183.893 293.522h82.165M345.375 243.835v85.895M345.375 184.861h0" style="stroke-width:40;stroke-linecap:round;stroke-linejoin:round;stroke-miterlimit:10;" fill="none" stroke="#FFFFFF" stroke-width="40" stroke-linecap="round" stroke-linejoin="round" stroke-miterlimit="10"></path><path
        d="M433.989 275.726V138.011c0-33.137-26.863-60-60-60H138.011c-33.137 0-60 26.863-60 60v235.977c0 33.137 26.863 60 60 60h235.977c32.556 0 59.056-25.929 59.975-58.263h58.036"
        style="stroke-width:40;stroke-linecap:round;stroke-linejoin:round;stroke-miterlimit:10;" fill="none"
        stroke="#FFFFFF" stroke-width="40" stroke-linecap="round" stroke-linejoin="round" stroke-miterlimit="10"
        ></path></g></svg>