<?xml version="1.0" encoding="UTF-8" standalone="no"?>
<!DOCTYPE svg PUBLIC "-//W3C//DTD SVG 1.1//EN" "http://www.w3.org/Graphics/SVG/1.1/DTD/svg11.dtd">
<!-- Created with Vectornator (http://vectornator.io/) -->
<svg height="100%" stroke-miterlimit="10" style="fill-rule:nonzero;clip-rule:evenodd;stroke-linecap:round;stroke-linejoin:round;" version="1.1" viewBox="0 0 24 24" width="100%" xml:space="preserve" xmlns="http://www.w3.org/2000/svg" xmlns:xlink="http://www.w3.org/1999/xlink">
<defs/>
<g id="Untitled">
<path d="M15.1263 20L21 20L21 10C21 8.89543 20.1046 8 19 8L15 8M11 16L11.01 16M17 16L17.01 16M7 16L7.01 16M11 12L11.01 12M17 12L17.01 12M7 12L7.01 12M11 8L11.01 8M7 8L7.01 8M15 20L15 6C15 4.89543 14.1046 4 13 4L5 4C3.89543 4 3 4.89543 3 6L3 20L15 20Z" fill="none" opacity="1" stroke="white" stroke-linecap="round" stroke-linejoin="round" stroke-width="2"/>
</g>
</svg>
