<?xml version="1.0" encoding="UTF-8" standalone="no"?>
<!DOCTYPE svg PUBLIC "-//W3C//DTD SVG 1.1//EN" "http://www.w3.org/Graphics/SVG/1.1/DTD/svg11.dtd">
<!-- Created with Vectornator (http://vectornator.io/) -->
<svg height="100%" stroke-miterlimit="10" style="fill-rule:nonzero;clip-rule:evenodd;stroke-linecap:round;stroke-linejoin:round;" version="1.1" viewBox="0 0 512 512" width="100%" xml:space="preserve" xmlns="http://www.w3.org/2000/svg" xmlns:vectornator="http://vectornator.io" xmlns:xlink="http://www.w3.org/1999/xlink">
<defs/>
<g id="Untitled" vectornator:layerName="Untitled">
<g opacity="1">
<path d="M496 120L496 56C496 52.97 494.288 50.2002 491.578 48.845L427.578 16.845C425.326 15.7187 422.674 15.7187 420.422 16.845L356.422 48.845C353.712 50.2002 352 52.97 352 56L352 120C352 123.03 353.712 125.8 356.422 127.155L362.017 129.955L318.072 172.608C281.251 145.133 230.749 145.133 193.928 172.608L149.983 129.955L155.578 127.155C158.288 125.8 160 123.03 160 120L160 56C160 52.97 158.288 50.2002 155.578 48.845L91.578 16.845C89.3256 15.7187 86.6744 15.7187 84.422 16.845L20.422 48.845C17.712 50.2002 16.0001 52.97 16 56L16 120C16.0001 123.03 17.712 125.8 20.422 127.155L84.422 159.155C86.6744 160.281 89.3256 160.281 91.578 159.155L134.821 137.534L181.839 183.168C146.698 218.852 142.051 274.54 170.791 315.555L118.5 366.307L91.578 352.845C89.3256 351.719 86.6744 351.719 84.422 352.845L20.422 384.845C17.712 386.2 16.0001 388.97 16 392L16 456C16.0001 459.03 17.712 461.8 20.422 463.155L84.422 495.155C86.6744 496.281 89.3256 496.281 91.578 495.155L155.578 463.155C158.288 461.8 160 459.03 160 456L160 392C160 388.97 158.288 386.2 155.578 384.845L133.663 373.887L180.984 327.957C200.571 348.424 227.67 360 256 360C284.33 360 311.429 348.424 331.016 327.957L378.337 373.887L356.422 384.845C353.712 386.2 352 388.97 352 392L352 456C352 459.03 353.712 461.8 356.422 463.155L420.422 495.155C422.674 496.281 425.326 496.281 427.578 495.155L491.578 463.155C494.288 461.8 496 459.03 496 456L496 392C496 388.97 494.288 386.2 491.578 384.845L427.578 352.845C425.326 351.719 422.674 351.719 420.422 352.845L393.5 366.307L341.21 315.555C369.95 274.54 365.303 218.852 330.162 183.168L377.18 137.534L420.423 159.155C422.675 160.281 425.327 160.281 427.579 159.155L491.579 127.155C494.289 125.8 496 123.03 496 120ZM88 32.944L134.112 56L88 79.057L41.888 56L88 32.944ZM32 68.944L80 92.944L80 139.055L32 115.055L32 68.944ZM96 139.056L96 92.945L144 68.945L144 115.057L137.819 118.147L125.572 106.26L114.428 117.74L122.657 125.727L96 139.056ZM32 404.944L80 428.944L80 475.055L32 451.055L32 404.944ZM96 475.056L96 428.945L144 404.945L144 451.057L96 475.056ZM88 415.056L41.888 392L88 368.944L134.112 392L88 415.056ZM368 404.943L416 428.943L416 475.054L368 451.054L368 404.943ZM432 475.055L432 428.945L480 404.945L480 451.057L432 475.055ZM424 368.943L470.112 392L424 415.057L377.888 392L424 368.943ZM329.558 304.243L315.147 290.26L304 301.74L319.536 316.82C302.958 334.179 280 344 255.996 344C231.992 344 209.034 334.179 192.456 316.82L208 301.74L196.857 290.26L182.446 304.246C158.304 267.481 165.013 218.538 198.158 189.626C231.303 160.715 280.705 160.715 313.85 189.626C346.995 218.538 353.704 267.481 329.562 304.246L329.558 304.243ZM424 32.944L470.112 56L424 79.057L377.888 56L424 32.944ZM386.428 106.26L374.181 118.146L368 115.056L368 68.944L416 92.944L416 139.055L389.343 125.726L397.572 117.739L386.428 106.26ZM432 139.056L432 92.945L480 68.945L480 115.057L432 139.056Z" fill="#ffffff" fill-rule="nonzero" opacity="1" stroke="#ffffff" stroke-linecap="round" stroke-linejoin="round" stroke-width="10"/>
<path d="M80 176L96 176L96 336L80 336L80 176ZM416 176L432 176L432 336L416 336L416 176ZM176 72L336 72L336 88L176 88L176 72ZM176 424L336 424L336 440L176 440L176 424Z" fill="#ffffff" fill-rule="nonzero" opacity="1" stroke="#ffffff" stroke-linecap="round" stroke-linejoin="round" stroke-width="10"/>
</g>
</g>
</svg>
