<!DOCTYPE svg PUBLIC "-//W3C//DTD SVG 1.1//EN" "http://www.w3.org/Graphics/SVG/1.1/DTD/svg11.dtd">

<!-- Uploaded to: SVG Repo, www.svgrepo.com, Transformed by: SVG Repo Mixer Tools -->
<svg fill="white" viewBox="0 0 1000.00 1000.00" xmlns="http://www.w3.org/2000/svg">

<g id="SVGRepo_bgCarrier" stroke-width="0"/>

<g id="SVGRepo_tracerCarrier" stroke-linecap="round" stroke-linejoin="round" stroke="#CCCCCC" stroke-width="32"/>

<g id="SVGRepo_iconCarrier">

<path d="M481 699l-135 71q-10 6-22 5t-21.5-8-14-18-2.5-22l26-150q2-10-1-20t-11-17L191 434q-8-8-11-19.5t.5-22.5 12.5-18.5 21-9.5l151-22q10-1 18-7t13-15l67-137q5-11 15-17t22-6 22 6 15 17l67 137q5 9 13 15t18 7l151 22q12 2 21 9.5t12.5 18.5.5 22.5-11 19.5L700 540q-8 7-11 17t-1 20l26 150q2 11-2.5 22t-14 18-21.5 8-22-5l-135-71q-9-5-19-5t-19 5z"/>

</g>

</svg>