<svg xmlns="http://www.w3.org/2000/svg" version="1.1" xmlns:xlink="http://www.w3.org/1999/xlink"
     xmlns:svgjs="http://svgjs.com/svgjs" width="100%" height="100%" x="0" y="0" viewBox="0 0 32 32"
     style="enable-background:new 0 0 512 512" xml:space="preserve" class=""><g><g fill="#000"><path d="M18.485 14.143a1 1 0 0 1 1.372.342L22 18.056l2.143-3.57a1 1 0 0 1 1.714 1.028L23.167 20l2.69 4.486a1 1 0 0 1-1.715 1.029L22 21.944l-2.143 3.57a1 1 0 0 1-1.715-1.028L20.834 20l-2.692-4.485a1 1 0 0 1 .343-1.372zM7 14a1 1 0 0 1 1 1v6a3 3 0 1 0 6 0v-6a1 1 0 1 1 2 0v6a5 5 0 0 1-10 0v-6a1 1 0 0 1 1-1z" fill="#FFFFFF" data-original="#FFFFFF"></path><path
        fill-rule="evenodd"
        d="M0 3.98A3 3 0 0 1 3 1h26a3 3 0 0 1 3 3v24a3 3 0 0 1-3 3H3a3 3 0 0 1-3-3V4zM2 11v17a1 1 0 0 0 1 1h26a1 1 0 0 0 1-1V11zm4-5a1 1 0 1 1-2 0 1 1 0 0 1 2 0zm2 1a1 1 0 1 0 0-2 1 1 0 0 0 0 2zm4-1a1 1 0 1 1-2 0 1 1 0 0 1 2 0z"
        clip-rule="evenodd" fill="#FFFFFF" data-original="#FFFFFF" class=""></path></g></g></svg>